<?xml version="1.0" standalone="no"?>
<!DOCTYPE svg PUBLIC "-//W3C//DTD SVG 20010904//EN"
 "http://www.w3.org/TR/2001/REC-SVG-20010904/DTD/svg10.dtd">
<svg version="1.0" xmlns="http://www.w3.org/2000/svg"
 width="400.000000pt" height="400.000000pt" viewBox="0 0 400.000000 400.000000"
 preserveAspectRatio="xMidYMid meet">
<metadata>
Created by potrace 1.11, written by Peter Selinger 2001-2013
</metadata>
<g transform="translate(0.000000,400.000000) scale(0.100000,-0.100000)"
fill="#000000" stroke="none">
<path d="M3472 3888 c-5 -7 -17 -33 -25 -58 -14 -42 -18 -45 -58 -52 -88 -15
-346 -38 -429 -38 -47 0 -122 -7 -166 -17 -77 -16 -83 -16 -118 1 -45 21 -178
18 -301 -7 -71 -15 -305 -46 -470 -63 -33 -3 -76 -10 -95 -14 -75 -19 -283
-39 -455 -45 -99 -4 -207 -11 -240 -16 -33 -5 -124 -9 -202 -9 -126 0 -143 2
-155 18 -52 74 -168 43 -168 -45 l-1 -38 -87 -28 c-48 -15 -127 -36 -177 -47
-49 -10 -125 -31 -168 -45 -43 -14 -84 -25 -92 -25 -8 0 -26 -5 -40 -12 l-25
-11 0 -138 0 -139 68 26 c132 50 238 82 292 89 30 3 96 17 145 30 187 50 380
85 461 85 43 -1 145 10 225 24 154 26 264 39 469 56 69 6 161 15 205 20 122
15 481 40 566 40 41 0 98 6 125 14 27 8 112 19 189 26 77 6 148 13 157 15 10
2 20 -1 23 -5 5 -9 -4 -18 -133 -130 -88 -77 -173 -163 -241 -245 -23 -27 -50
-59 -60 -70 -10 -11 -41 -54 -69 -97 -70 -103 -143 -181 -189 -201 -21 -9 -81
-25 -133 -37 -52 -12 -110 -28 -129 -36 -55 -23 -227 -62 -366 -84 -207 -32
-494 -24 -700 20 -49 11 -145 26 -212 34 -67 9 -141 20 -165 25 -58 13 -164
16 -213 6 -104 -20 -188 -122 -182 -222 3 -49 8 -56 65 -114 61 -61 79 -100
67 -138 -3 -11 -15 -23 -25 -26 -11 -3 -31 -20 -45 -37 -26 -31 -27 -35 -23
-147 3 -107 5 -121 35 -181 18 -36 35 -80 39 -97 4 -20 20 -43 44 -62 22 -17
52 -57 69 -93 17 -34 38 -69 46 -78 8 -9 21 -32 30 -53 8 -20 27 -44 43 -54
15 -10 29 -20 32 -23 3 -3 32 -27 65 -52 72 -56 165 -151 165 -170 0 -7 11
-25 24 -39 30 -32 46 -63 46 -86 0 -10 15 -48 33 -83 37 -73 13 -63 224 -92
50 -7 95 -16 99 -21 4 -4 34 -7 66 -7 70 0 155 38 222 101 24 21 46 39 50 39
3 0 6 -49 6 -109 0 -59 4 -121 9 -137 5 -16 14 -48 20 -72 10 -37 19 -45 64
-68 29 -15 79 -44 112 -64 33 -21 80 -44 105 -51 25 -7 61 -25 80 -39 116 -89
211 -89 295 -1 25 26 70 65 101 86 47 33 58 36 79 27 32 -15 133 2 205 33 52
23 182 55 224 55 11 0 49 18 85 40 81 48 139 62 211 51 69 -11 84 -6 106 34
16 31 50 55 76 55 28 0 79 55 108 117 39 84 63 110 110 123 20 5 47 21 60 35
23 25 24 28 13 102 -11 73 -13 79 -60 123 -26 25 -83 70 -126 100 -43 29 -84
61 -90 70 -7 9 -28 27 -47 40 -19 13 -67 49 -105 80 -39 31 -91 69 -117 84
-53 31 -275 222 -333 288 -45 51 -105 132 -105 144 0 4 -6 15 -14 23 -43 48
-177 313 -211 419 -23 70 -15 165 20 235 90 181 364 491 576 651 106 80 166
106 250 106 26 0 83 7 126 15 43 8 132 15 198 15 88 0 140 6 195 20 62 17 234
49 263 50 4 0 7 52 7 116 l0 117 -52 -6 c-29 -3 -114 -2 -188 2 -74 4 -140 3
-147 -2 -14 -10 -40 2 -72 37 -27 28 -53 33 -69 14z"/>
</g>
</svg>
